# xmcd CD database file
#
# Track frame offsets:
#	150
#	13176
#	25822
#	48195
#	67346
#	86337
#	102937
#	121835
#	140523
#	159998
#	178740
#	196242
#	212094
#	232797
#	247066
#	266470
#	283953
#	299602
#	319968
#
# Disc length: 4519 seconds
#
# Revision: 2
# Processed by: cddbd v1.5.2PL0 Copyright (c) Steve Scherf et al.
# Submitted via: CDex 1.51
#
DISCID=1a11a513
DTITLE=Jaques Berndorf - 22 - Eifel Krieg CD04
DYEAR=2013
DGENRE=Hörbuch
TTITLE0=Eifel Krieg 059
TTITLE1=Eifel Krieg 060
TTITLE2=Eifel Krieg 061
TTITLE3=Eifel Krieg 062
TTITLE4=Eifel Krieg 063
TTITLE5=Eifel Krieg 064
TTITLE6=Eifel Krieg 065
TTITLE7=Eifel Krieg 066
TTITLE8=Eifel Krieg 067
TTITLE9=Eifel Krieg 068
TTITLE10=Eifel Krieg 069
TTITLE11=Eifel Krieg 070
TTITLE12=Eifel Krieg 071
TTITLE13=Eifel Krieg 072
TTITLE14=Eifel Krieg 073
TTITLE15=Eifel Krieg 074
TTITLE16=Eifel Krieg 075
TTITLE17=Eifel Krieg 076
TTITLE18=Eifel Krieg 077
EXTD=YEAR: 2013
EXTT0=
EXTT1=
EXTT2=
EXTT3=
EXTT4=
EXTT5=
EXTT6=
EXTT7=
EXTT8=
EXTT9=
EXTT10=
EXTT11=
EXTT12=
EXTT13=
EXTT14=
EXTT15=
EXTT16=
EXTT17=
EXTT18=
PLAYORDER=
